<svg xmlns="http://www.w3.org/2000/svg" xmlns:xlink="http://www.w3.org/1999/xlink" viewBox="0 0 301.61 214.23"><defs><style>.cls-1{fill:none;}.cls-2{fill:#ffb91f;}.cls-3{fill:url(#Gradiente_sem_nome_19);}.cls-4{fill:url(#Gradiente_sem_nome_10);}.cls-5{fill:url(#Gradiente_sem_nome_19-2);}.cls-6{opacity:0.75;}.cls-12,.cls-20,.cls-22,.cls-23,.cls-24,.cls-25,.cls-6{isolation:isolate;}.cls-7{fill:#f8fcf0;}.cls-8{fill:url(#Gradiente_sem_nome_19-3);}.cls-9{fill:url(#Gradiente_sem_nome_19-4);}.cls-10{clip-path:url(#clip-path);}.cls-11{fill:url(#Gradiente_sem_nome_21);}.cls-12{opacity:0.5;}.cls-13{fill:#889869;}.cls-14{clip-path:url(#clip-path-3);}.cls-15{fill:#839464;}.cls-16{fill:url(#Gradiente_sem_nome_19-5);}.cls-17{clip-path:url(#clip-path-4);}.cls-18{fill:#dbe1d2;}.cls-19{fill:#eff8dc;}.cls-20,.cls-22,.cls-23,.cls-24{opacity:0.9;}.cls-21,.cls-22{fill:#212901;}.cls-23{fill:url(#Gradiente_sem_nome_10-2);}.cls-24{fill:url(#Gradiente_sem_nome_10-3);}.cls-25{opacity:0.95;fill:url(#Gradiente_sem_nome_10-4);}.cls-26{fill:url(#Gradiente_sem_nome_19-6);}.cls-27{fill:#9b4205;}.cls-28{fill:#e67f23;}</style><radialGradient id="Gradiente_sem_nome_19" cx="436.95" cy="1481.2" r="9.06" gradientTransform="matrix(1, 0, 0, -1, -222.7, 1590.15)" gradientUnits="userSpaceOnUse"><stop offset="0" stop-color="#edd7a4"/><stop offset="0.52" stop-color="#e67f23"/><stop offset="1" stop-color="#d35500"/></radialGradient><radialGradient id="Gradiente_sem_nome_10" cx="427" cy="1823.15" r="14.64" gradientTransform="matrix(1, 0, 0, -0.6, -222.7, 1108.78)" gradientUnits="userSpaceOnUse"><stop offset="0" stop-color="#b02d30"/><stop offset="1" stop-color="#883739"/></radialGradient><radialGradient id="Gradiente_sem_nome_19-2" cx="232.55" cy="1272.96" r="69.75" gradientTransform="matrix(1.48, -0.55, -0.41, -1.09, 331.38, 1566.49)" xlink:href="#Gradiente_sem_nome_19"/><radialGradient id="Gradiente_sem_nome_19-3" cx="252.41" cy="1292.44" r="27.72" gradientTransform="matrix(1.55, -0.37, -0.38, -1.62, 283.84, 2229.45)" xlink:href="#Gradiente_sem_nome_19"/><radialGradient id="Gradiente_sem_nome_19-4" cx="349.22" cy="1570.52" r="20.97" xlink:href="#Gradiente_sem_nome_19"/><clipPath id="clip-path"><path class="cls-1" d="M177.12,80c10.94,1.18,33.25-13,21.74-41.44s-47.16-22.23-52.18-5.88c-1,3.09,14.66,6.35,21.23,18.93s3.87,27.81,9.21,28.39Z"/></clipPath><radialGradient id="Gradiente_sem_nome_21" cx="-5.18" cy="745.68" r="27.72" gradientTransform="matrix(0.83, -3.57, -1.36, -0.32, 1214.29, 311.22)" gradientUnits="userSpaceOnUse"><stop offset="0" stop-color="#b5441b"/><stop offset="1" stop-color="#c2d597" stop-opacity="0"/></radialGradient><clipPath id="clip-path-3"><path class="cls-1" d="M133.94,22.49C140.16,20.32,152.39,13,147.69,9c-7.06,2.41-18.21-17.75-38.89-4.43-11.88,7.65,3.93,29.07,0,34.68,5.53-9.22,9-11.14,25.19-16.78Z"/></clipPath><radialGradient id="Gradiente_sem_nome_19-5" cx="-241.55" cy="1458.24" r="19.63" gradientTransform="matrix(2.2, 1.28, 0.84, -1.44, -578.29, 2494.84)" xlink:href="#Gradiente_sem_nome_19"/><clipPath id="clip-path-4"><path class="cls-1" d="M101.92,69c-3.06,4.07-10,5.88-10.36,14.58s7,24.67,17.78,27.75,11.89-.38,17.39-.13,5.76-21.36-3.84-31.46S106.4,68.06,101.92,69Z"/></clipPath><radialGradient id="Gradiente_sem_nome_10-2" cx="615.32" cy="1280.33" r="16.7" gradientTransform="matrix(1.19, -0.28, -0.37, -1.53, -95.82, 2188.59)" xlink:href="#Gradiente_sem_nome_10"/><radialGradient id="Gradiente_sem_nome_10-3" cx="-64.41" cy="1623.65" r="14.16" gradientTransform="matrix(1.53, 0.13, 0.08, -1, 79.88, 1645.87)" xlink:href="#Gradiente_sem_nome_10"/><radialGradient id="Gradiente_sem_nome_10-4" cx="323.61" cy="1293.28" r="8.37" gradientTransform="matrix(1, 0, 0, -1.61, -222.7, 2169.58)" xlink:href="#Gradiente_sem_nome_10"/><radialGradient id="Gradiente_sem_nome_19-6" cx="398.63" cy="1577.83" r="17.91" xlink:href="#Gradiente_sem_nome_19"/></defs><title>Ativo 6</title><g id="Camada_2" data-name="Camada 2"><g id="Camada_1-2" data-name="Camada 1"><path class="cls-2" d="M88.58,185.45q-7.38,0-11.18-4.7T74.65,169l.15-1.19q1.2-8,6-12.76t12.64-4.69q6.56,0,9.83,4.13t2.25,11.17l-.84,5.52H85.27l-.07.19a5.73,5.73,0,0,0,1.31,4.33q1.47,1.61,4.72,1.6a22.57,22.57,0,0,0,5.09-.51,34.85,34.85,0,0,0,4.87-1.58l1.56,6.44a22.53,22.53,0,0,1-6.26,2.68A28.82,28.82,0,0,1,88.58,185.45ZM92.2,158.5a5,5,0,0,0-3.89,1.61,9.82,9.82,0,0,0-2.11,4.33l.06.19h9.09l.13-.82a6.45,6.45,0,0,0-.33-4C94.66,158.94,93.68,158.5,92.2,158.5Z"/><path class="cls-2" d="M127.57,160l-3.44,0a6.31,6.31,0,0,0-3,.7,5.53,5.53,0,0,0-2.06,2l-3.31,22.17H105.18l5-33.79h9.94l-.35,4.62.16.1a10.71,10.71,0,0,1,3.25-4,7.23,7.23,0,0,1,4.3-1.38,8.34,8.34,0,0,1,1.27.09,7.61,7.61,0,0,1,1.17.28Z"/><path class="cls-2" d="M140.79,177.33a4.7,4.7,0,0,0,3.34-1.18,5.61,5.61,0,0,0,1.63-3.37h9.59l.06.18a13.13,13.13,0,0,1-5.17,9.12,17.05,17.05,0,0,1-10.66,3.37q-7.41,0-11-4.82t-2.47-12.35l.13-.72q1.16-7.91,6-12.54t12.57-4.63q6.21,0,9.63,3.62t2.39,9.77l-.06.16h-9.65a6,6,0,0,0-.48-4,3.24,3.24,0,0,0-3.05-1.47A5.18,5.18,0,0,0,139,161a16.12,16.12,0,0,0-2.24,6.56l-.12.72a14.29,14.29,0,0,0,.19,6.73Q137.64,177.34,140.79,177.33Z"/><path class="cls-2" d="M177.16,179.9a13.5,13.5,0,0,1-4.53,4.13,11.71,11.71,0,0,1-5.74,1.42,8.55,8.55,0,0,1-7.59-3.71q-2.53-3.72-1.38-11.37L160.83,151h10.52l-2.9,19.42q-.63,4.13.17,5.52a3.1,3.1,0,0,0,2.95,1.38,8.68,8.68,0,0,0,3-.5,6.92,6.92,0,0,0,2.4-1.46L180.66,151h10.55l-5.06,33.79h-8.49Z"/><path class="cls-2" d="M212.43,160,209,160a6.28,6.28,0,0,0-3,.7,5.53,5.53,0,0,0-2.06,2L200.6,184.8H190L195.1,151H205l-.34,4.62.16.1a10.78,10.78,0,0,1,3.24-4,7.26,7.26,0,0,1,4.31-1.38,8.34,8.34,0,0,1,1.27.09,7.61,7.61,0,0,1,1.17.28Z"/><path class="cls-2" d="M221.73,184.8H211.14L216.2,151h10.58ZM228,143.17H217.39l1.06-7.09H229Z"/><path class="cls-2" d="M247.41,179.9a13.56,13.56,0,0,1-4.52,4.13,11.75,11.75,0,0,1-5.75,1.42,8.57,8.57,0,0,1-7.59-3.71Q227,178,228.18,170.37l2.9-19.36H241.6l-2.9,19.42q-.63,4.13.17,5.52a3.11,3.11,0,0,0,2.95,1.38,8.6,8.6,0,0,0,3-.5,7,7,0,0,0,2.41-1.46L250.91,151h10.56l-5.06,33.79h-8.5Z"/><path class="cls-3" d="M224.56,101.35s.09,11.21-6.33,14.56c-4.59,2.39-14.29-2.62-14.29-2.62l20.62-11.94Z"/><path class="cls-4" d="M208.46,2.84c6.65,2.24,10,12.74,9.33,17.27L188.5,8.21c4.34-1.29,13.27-7.62,20-5.37Z"/><path class="cls-5" d="M175.46,4.29a86.08,86.08,0,0,0-29.54,5.33c-26.6,9.8-41,31.68-44.52,45.79-13.19,53,37.53,71,41.31,74.3s4.8,13,16.5,12.66,13.54-9.2,18.67-11.51c4.92-2.22,13.82-.8,39.65-20.72s26.43-62.77,9-83.64A56.31,56.31,0,0,0,203.67,9.8a20.32,20.32,0,0,0-3.21-.34,6.25,6.25,0,0,0-1.12-1.35,74,74,0,0,0-23.88-3.82Z"/><g class="cls-6"><path class="cls-7" d="M109.16,52.56c.51-1.55,2.59-6,4.79-4,1,1.23-2.21,6.74-3.57,7.06s-1.45-2.72-1.22-3.08Z"/></g><path class="cls-8" d="M177.12,80c10.94,1.18,33.25-13,21.74-41.44s-47.16-22.23-52.18-5.88c-1,3.09,14.66,6.35,21.23,18.93s3.87,27.81,9.21,28.39Z"/><path class="cls-9" d="M133.94,22.49C140.16,20.32,152.39,13,147.69,9c-7.06,2.41-18.21-17.75-38.89-4.43-11.88,7.65,3.93,29.07,0,34.68,5.53-9.22,9-11.14,25.19-16.78Z"/><g class="cls-10"><path class="cls-11" d="M205.63,36.5c.09.88-19.63-14.58-18-12.69,20.54,24.23,3.12,52-17.62,47,.78,5.16,2.8,11.36,4.83,13,9.1,7.29,40.21-20.45,30.81-47.29Z"/></g><g class="cls-10"><g class="cls-12"><path class="cls-13" d="M145,34.79S162.1,27,173.19,36.6c14.65,12.66,1.27,45.76,1.27,45.76L145,34.79Z"/></g></g><g class="cls-14"><g class="cls-12"><path class="cls-15" d="M133.76,23.94c-8.86-2.35-20.08-17.55-26.59-11.58-4.8,4.41,5.25,24.6,2.53,27s28.42-14.17,24.06-15.37Z"/></g></g><path class="cls-16" d="M101.92,69c-3.06,4.08-10,5.89-10.36,14.58s7,24.68,17.78,27.76,11.89-.39,17.39-.13,5.76-21.36-3.84-31.46S106.4,68.07,101.92,69Z"/><g class="cls-17"><g class="cls-12"><ellipse class="cls-18" cx="94.6" cy="104.78" rx="24.33" ry="29.61"/></g></g><path class="cls-19" d="M128.92,58.57c2.13.32,3.73,2.22,1.74,6.24l-3.32.28A6.84,6.84,0,0,1,126,61.33a3.47,3.47,0,0,1,2.94-2.76Z"/><g class="cls-20"><path class="cls-21" d="M140.46,39c-.11,0-.24.19-.32.59-.33,1.57-2.41,5.35-4.07,7.93s-4.83,7.65-5.77,8.64h0l-.41-.07c.28-1.38,4.69-9.07,4.74-10.8,0-.45-.1-.65-.23-.65s-.27.2-.31.56c-.25,2.41-4.67,9.89-5.32,10.91-3.1.53-4.69,4.89-4.31,7.13,0,0,1.63-7.06,5.82-5s-.31,9.09-.31,9.09c2.74-1,4.73-7.64,2.14-10.24.24-1,4.26-5.15,4.82-5.75s-.39-1-.48-.41-4.07,5.24-4.95,5.66l-.17-.09c.08-.84,3.62-6.37,5.12-8.78a58.8,58.8,0,0,0,4.24-8c.13-.39,0-.76-.22-.72Z"/></g><path class="cls-22" d="M129.47,61a2.86,2.86,0,0,1,.72,4.52c-1.29,1.52-2.85,2.26-3.89,1.68s-1.72-2.94-.9-4.66A2.87,2.87,0,0,1,129.47,61Z"/><g class="cls-20"><path class="cls-21" d="M125,34.12a.6.6,0,0,0-.33.12c-4.17,2.56-9.34,9.4-10.33,11a2.74,2.74,0,0,1-1.16,1.14,1,1,0,0,0-.25-.07A21.78,21.78,0,0,1,118,38.5c.77-.78,0-.74-.35-.33-4.23,4.49-4.67,7-5.59,8.22-2.21,1.8-3.86,5.14-5.09,7.64.83-.64,3-4.06,4.16-5.63s3.56-1.08,2.53,2.56c-.65,2.26-3.2,4.35-3.78,6,0,0,3.49-3.27,4.48-6.11a4.89,4.89,0,0,0,.19-2.54,20,20,0,0,1,4.57-5.91c.51-.34.69-1-.06-.57-1.71,1-4.09,4.86-4.77,5.64l-.19-.4c.77-2.81,8.74-11.65,10.65-12.5.28-.13.43-.49.23-.5Z"/></g><path class="cls-22" d="M111.07,52.14c.91,1,.58,2-.41,3.37s-2,2.51-2.71,1.93-.93-1.62-.22-3.69c.6-1.79,2.4-2.59,3.34-1.61Z"/><g class="cls-10"><path class="cls-23" d="M145,34.79S162.1,27,173.19,36.6c14.65,12.66,1.27,45.76,1.27,45.76L145,34.79Z"/></g><g class="cls-14"><path class="cls-24" d="M133.76,23.94c-8.86-2.35-20.08-17.55-26.59-11.58-4.8,4.41,5.25,24.6,2.53,27s28.42-14.17,24.06-15.37Z"/></g><path class="cls-25" d="M94.7,83.93c-1.16,1.07-.52,9.46.57,12.78s3.34,6.18,4.09,5.63.89-4.84.13-8.18-1-9.22-2-9.6-1.63-1.68-2.75-.63Zm8.44,6.7c-1.19.81-1.47,6.58-1.09,10,.49,3.77,3.34,9,6,9.66s3.19-.19,2.62-4-2.11-7.55-2.37-10-.07-3.46-1.66-4.6-2.26-1.9-3.45-1.1Z"/><path class="cls-26" d="M187.25,6.12c-14.5,0-28.91,5.5-35.88,9.81.32,1.15,5.54,2.68,7,2.58,14.76-4.58,28.24-10.27,42.14-9a5.91,5.91,0,0,0-2.43-2.26,50.15,50.15,0,0,0-10.81-1.1Z"/><path class="cls-27" d="M190.33,9.06c-12.08.1-23.37,3.57-34.4,9.06a9.38,9.38,0,0,0,2.43.4c13.31-4.14,25.58-9.17,38.06-9.21q-3.07-.27-6.09-.25Z"/><path class="cls-28" d="M82.23,210.06a5.12,5.12,0,0,1-4-1.65A6.4,6.4,0,0,1,76.73,204v-.49a6.23,6.23,0,0,1,1.5-4.29,4.71,4.71,0,0,1,3.66-1.7,4.37,4.37,0,0,1,3.62,1.5,6.19,6.19,0,0,1,1.21,4v1.16H79l0,.05a5,5,0,0,0,.8,2.95,2.82,2.82,0,0,0,2.45,1.13,5.63,5.63,0,0,0,2-.32,4.33,4.33,0,0,0,1.44-.87l.85,1.42a5.2,5.2,0,0,1-1.7,1.06A6.87,6.87,0,0,1,82.23,210.06Zm-.34-10.77a2.37,2.37,0,0,0-1.9.88,4.2,4.2,0,0,0-.92,2.27l0,.05h5.43v-.17a3.54,3.54,0,0,0-.64-2.18A2.34,2.34,0,0,0,81.89,199.29Z"/><path class="cls-28" d="M93.28,208.35a2.55,2.55,0,0,0,1.77-.67,2.12,2.12,0,0,0,.76-1.66h2l0,.07a3.51,3.51,0,0,1-1.34,2.77,5.13,5.13,0,0,1-7.13-.52A6.66,6.66,0,0,1,88,204v-.47a6.61,6.61,0,0,1,1.39-4.28,4.73,4.73,0,0,1,3.91-1.73,4.53,4.53,0,0,1,3.3,1.25,4,4,0,0,1,1.25,3.06l0,.07h-2a2.66,2.66,0,0,0-.72-1.88,2.35,2.35,0,0,0-1.81-.77,2.52,2.52,0,0,0-2.35,1.25,5.79,5.79,0,0,0-.74,3V204a5.93,5.93,0,0,0,.73,3.06A2.52,2.52,0,0,0,93.28,208.35Z"/><path class="cls-28" d="M99.23,203.7a6.67,6.67,0,0,1,1.45-4.41,5.36,5.36,0,0,1,7.89,0A6.6,6.6,0,0,1,110,203.7v.24a6.61,6.61,0,0,1-1.44,4.41,5.39,5.39,0,0,1-7.89,0,6.56,6.56,0,0,1-1.46-4.4Zm2.2.24a5.76,5.76,0,0,0,.8,3.16,2.92,2.92,0,0,0,4.79,0,5.68,5.68,0,0,0,.81-3.16v-.24a5.65,5.65,0,0,0-.82-3.16,2.91,2.91,0,0,0-4.78,0,5.81,5.81,0,0,0-.8,3.16Z"/><path class="cls-28" d="M114,197.78l.16,1.8a4.3,4.3,0,0,1,1.51-1.49,4,4,0,0,1,2.06-.53,3.94,3.94,0,0,1,3,1.14,5,5,0,0,1,1.07,3.53v7.6h-2.19v-7.56A3.27,3.27,0,0,0,119,200a2.5,2.5,0,0,0-1.92-.67,3.39,3.39,0,0,0-1.72.41,2.86,2.86,0,0,0-1.12,1.14v8.94H112V197.78Z"/><path class="cls-28" d="M123.79,203.7a6.67,6.67,0,0,1,1.44-4.41,5.36,5.36,0,0,1,7.89,0,6.61,6.61,0,0,1,1.46,4.41v.24a6.62,6.62,0,0,1-1.45,4.41,5.39,5.39,0,0,1-7.89,0,6.56,6.56,0,0,1-1.45-4.4Zm2.19.24a5.68,5.68,0,0,0,.81,3.16,2.91,2.91,0,0,0,4.78,0,5.68,5.68,0,0,0,.81-3.16v-.24a5.65,5.65,0,0,0-.82-3.16,2.9,2.9,0,0,0-4.77,0,5.73,5.73,0,0,0-.81,3.16Z"/><path class="cls-28" d="M138.54,197.78l.15,1.58a4.09,4.09,0,0,1,1.5-1.33,4.56,4.56,0,0,1,2.11-.47,3.71,3.71,0,0,1,2.06.56,3.35,3.35,0,0,1,1.3,1.67,4.48,4.48,0,0,1,1.51-1.63,3.94,3.94,0,0,1,2.18-.6,3.6,3.6,0,0,1,2.9,1.26,5.75,5.75,0,0,1,1.07,3.81v7.2h-2.19V202.6a4.08,4.08,0,0,0-.61-2.52,2.25,2.25,0,0,0-1.83-.74,2.32,2.32,0,0,0-1.82.78,3.42,3.42,0,0,0-.82,2v7.74h-2.2V202.6a3.93,3.93,0,0,0-.63-2.47,2.17,2.17,0,0,0-1.81-.79,3.06,3.06,0,0,0-1.65.41,2.74,2.74,0,0,0-1,1.16v8.92h-2.19V197.78Z"/><path class="cls-28" d="M158.19,194.7H156v-2.24h2.19Zm0,15.13H156V197.78h2.19Z"/><path class="cls-28" d="M168.29,209.83c-.08-.36-.13-.68-.17-1A8,8,0,0,1,168,208a5.05,5.05,0,0,1-1.59,1.45,4.11,4.11,0,0,1-2.13.58,3.92,3.92,0,0,1-2.86-1,3.53,3.53,0,0,1-1-2.65,3.12,3.12,0,0,1,1.4-2.7,6.51,6.51,0,0,1,3.79-1H168v-1.19a2.24,2.24,0,0,0-.64-1.68,2.55,2.55,0,0,0-1.83-.61,2.6,2.6,0,0,0-1.72.53,1.6,1.6,0,0,0-.66,1.28l-2.08,0,0-.06a2.9,2.9,0,0,1,1.23-2.41,5.1,5.1,0,0,1,3.38-1.09,5,5,0,0,1,3.3,1,3.71,3.71,0,0,1,1.25,3v5.8c0,.43,0,.85.06,1.25a6.69,6.69,0,0,0,.25,1.18Zm-3.64-1.6a4,4,0,0,0,2.15-.61,2.88,2.88,0,0,0,1.24-1.41v-2h-2.46a3.22,3.22,0,0,0-2.12.67,2,2,0,0,0-.79,1.57,1.62,1.62,0,0,0,.5,1.27A2.09,2.09,0,0,0,164.65,208.23Z"/><path class="cls-28" d="M178.63,209.83V199.41h-1.88v-1.63h1.88v-1.52a4.14,4.14,0,0,1,1-3,3.71,3.71,0,0,1,2.81-1.05,5,5,0,0,1,.77.06l.85.17-.27,1.67-.48-.08a5.74,5.74,0,0,0-.6,0,1.76,1.76,0,0,0-1.43.57,2.62,2.62,0,0,0-.46,1.67v1.52H183v1.63h-2.18v10.42Z"/><path class="cls-28" d="M192,209.83q-.12-.54-.18-1a7.93,7.93,0,0,1-.07-.84,5.09,5.09,0,0,1-1.6,1.45,4,4,0,0,1-2.12.58,4,4,0,0,1-2.87-1,3.56,3.56,0,0,1-1-2.65,3.1,3.1,0,0,1,1.4-2.7,6.51,6.51,0,0,1,3.79-1h2.38v-1.19a2.24,2.24,0,0,0-.65-1.68,2.52,2.52,0,0,0-1.82-.61,2.65,2.65,0,0,0-1.73.53,1.59,1.59,0,0,0-.65,1.28l-2.09,0,0-.06a2.9,2.9,0,0,1,1.23-2.41,5.08,5.08,0,0,1,3.38-1.09,5,5,0,0,1,3.3,1,3.7,3.7,0,0,1,1.24,3v5.8c0,.43,0,.85.07,1.25a6.69,6.69,0,0,0,.25,1.18Zm-3.65-1.6a4,4,0,0,0,2.15-.61,2.9,2.9,0,0,0,1.25-1.41v-2h-2.46a3.22,3.22,0,0,0-2.12.67,2,2,0,0,0-.8,1.57,1.66,1.66,0,0,0,.5,1.27A2.12,2.12,0,0,0,188.3,208.23Z"/><path class="cls-28" d="M198.35,197.78l.16,1.58A4.09,4.09,0,0,1,200,198a4.56,4.56,0,0,1,2.11-.47,3.71,3.71,0,0,1,2.06.56,3.35,3.35,0,0,1,1.3,1.67,4.48,4.48,0,0,1,1.51-1.63,3.92,3.92,0,0,1,2.18-.6,3.6,3.6,0,0,1,2.9,1.26,5.81,5.81,0,0,1,1.07,3.81v7.2H211V202.6a4,4,0,0,0-.62-2.52,2.22,2.22,0,0,0-1.82-.74,2.32,2.32,0,0,0-1.82.78,3.36,3.36,0,0,0-.82,2v7.74h-2.2V202.6a3.93,3.93,0,0,0-.63-2.47,2.18,2.18,0,0,0-1.81-.79,3.06,3.06,0,0,0-1.65.41,2.74,2.74,0,0,0-1,1.16v8.92h-2.2V197.78Z"/><path class="cls-28" d="M218,194.7h-2.19v-2.24H218Zm0,15.13h-2.19V197.78H218Z"/><path class="cls-28" d="M223.07,209.83h-2.19V192.46h2.19Z"/><path class="cls-28" d="M228.14,194.7h-2.2v-2.24h2.2Zm0,15.13h-2.2V197.78h2.2Z"/><path class="cls-28" d="M238.23,209.83c-.07-.36-.13-.68-.17-1A8,8,0,0,1,238,208a5.05,5.05,0,0,1-1.59,1.45,4.1,4.1,0,0,1-2.12.58,4,4,0,0,1-2.87-1,3.53,3.53,0,0,1-1-2.65,3.12,3.12,0,0,1,1.4-2.7,6.53,6.53,0,0,1,3.79-1H238v-1.19a2.24,2.24,0,0,0-.64-1.68,2.55,2.55,0,0,0-1.83-.61,2.62,2.62,0,0,0-1.72.53,1.6,1.6,0,0,0-.66,1.28l-2.08,0,0-.06a2.85,2.85,0,0,1,1.23-2.41,5.07,5.07,0,0,1,3.38-1.09,5,5,0,0,1,3.29,1,3.71,3.71,0,0,1,1.25,3v5.8c0,.43,0,.85.06,1.25a6.69,6.69,0,0,0,.25,1.18Zm-3.64-1.6a4,4,0,0,0,2.15-.61,2.88,2.88,0,0,0,1.24-1.41v-2h-2.46a3.22,3.22,0,0,0-2.12.67,2,2,0,0,0-.79,1.57,1.62,1.62,0,0,0,.5,1.27A2.1,2.1,0,0,0,234.59,208.23Z"/><path class="cls-28" d="M248.38,199.72l-1.12-.07a2.5,2.5,0,0,0-1.47.42,2.65,2.65,0,0,0-.92,1.15v8.61h-2.19V197.78h2l.21,1.76a4.22,4.22,0,0,1,1.26-1.46,3,3,0,0,1,1.74-.52,2.32,2.32,0,0,1,.46,0l.37.08Z"/><path class="cls-2" d="M34.54,191.87l.25,0,20-42.2H73.27l-9,60.3h-14L56,171.2l-.25,0L36.7,210H27.29L20,171.74h-.25L14,210H0l9-60.3H27.38Z"/><path class="cls-2" d="M284.67,190.92q.42-3.16-.81-4.71t-5.21-3.32q-8.81-3.25-12.57-7.11t-2.68-11.19a16.43,16.43,0,0,1,6-11,22.64,22.64,0,0,1,12.81-4.71l1.16-8.14h6.1l-1.16,8.3q6.87,1,10.48,5.52t2.69,11.62h-13q.54-4-.87-5.79a5.39,5.39,0,0,0-4.5-1.78,6.19,6.19,0,0,0-4.65,1.68,7.35,7.35,0,0,0-2,4.35,5.19,5.19,0,0,0,.79,4.14q1.19,1.45,5.23,3.54,8.54,2.85,12.39,7t2.86,11.47a16.73,16.73,0,0,1-5.81,11,21.9,21.9,0,0,1-12.41,4.61l-1.08,7.76h-6.14l1.08-7.76q-7.49-.69-12-5t-3.14-12.69l.08-.19H271q-.66,4.63,1.19,6.43c1.24,1.2,3.09,1.79,5.56,1.79a6.76,6.76,0,0,0,4.79-1.62A7,7,0,0,0,284.67,190.92Z"/></g></g></svg>